<svg width="295" height="412" viewBox="0 0 295 412" fill="none" xmlns="http://www.w3.org/2000/svg">
<path d="M42 18L27 1.99999L2 1.99999L2 82L16 97L16 316L0.999986 331L0.999982 410L27 410L42 396L255 396L270 411L294 411L294 330L279 315L279 97L294 82L294 1L268 0.999999L253 17L250 19L42 19" stroke="#11E5B3"/>
<path fill-rule="evenodd" clip-rule="evenodd" d="M274 65C274.152 65.3905 274.773 64.6095 276 64C279.5 62.2608 279.729 63 280 63C280.159 63 280 62.1484 280 62C280 61.8517 280.819 62 281 62C281.181 62 281.32 61.3476 282 61C282.68 60.6525 283.552 60.2077 284 60L285 60L285 56C285 53.5335 285.145 52 285 52C284.642 52 283.097 52.7655 283 53C282.954 53.1111 282.333 53 282 53C281.667 53 281 52.8517 281 53C281 53.1484 281.208 54 281 54C280.791 54 280.239 53.8612 280 54C278.991 54.5855 278.314 55 278 55C277.815 55 277 54.8517 277 55C277 55.1484 277.241 55.9952 277 56C276.759 56.0046 276.267 55.7822 276 56C275.732 56.2177 275.301 56 275 56C274.588 56 274.118 56.365 274 57C273.793 58.1126 273.782 64.4394 274 65ZM274 55C274.084 55.2239 274.198 54.459 275 54C275.632 53.6384 276.814 54 277 54C277.186 54 277 53.1484 277 53C277 52.8517 277.819 53 278 53C278.181 53 278.457 53.277 279 53C280.021 52.4785 280.141 51.3688 283 50L285 50L285 46C285 43.3089 285.176 42 285 42C284.853 42 283.753 41.6293 283 42C282.247 42.3708 282.061 43 282 43C281.939 43 280.796 43.6115 280 44C279.204 44.3886 278.482 44.7757 278 45C277.518 45.2241 276.542 45.7228 276 46C275.457 46.277 275.164 46 275 46C274.835 46 274.083 46.6662 274 47C273.823 47.7117 273.822 54.5306 274 55ZM274 44C274.192 44.2066 275 44.2586 275 44C275 43.8693 275.861 44 276 44C276.138 44 276.286 43.3708 277 43C277.714 42.6293 278.819 42 279 42C279 42.1484 279.181 42 279 42C279 41.8517 279.732 42 280 42C279.921 42.137 280.267 42 280 42C280.079 41.8631 280.588 41.0974 281 41C281.412 40.9027 282 41.1365 282 41C282 40.8633 282.655 40 283 40C283 40.1484 283.344 40 283 40C283 39.8517 283.746 40 284 40C284.254 40 284.772 39.2713 285 39C285.346 38.5886 285 38.303 285 35C285 32.8242 285.071 31 285 31C284.929 31 284.239 30.8682 284 31C283.761 31.1319 283.551 31.7393 283 32C282.449 32.2608 281.239 32.8736 281 33C280.761 33.1265 281.208 33 281 33C280.791 33 280 32.8517 280 33C280 33.1484 280.208 33 280 33C279.791 33 279.239 33.8588 279 34C278.761 34.1411 278.551 33.7549 278 34C276.22 34.7915 274.176 35.732 274 36C273.809 36.2899 273.813 43.7986 274 44Z" fill="#11E5B3"/>
<path fill-rule="evenodd" clip-rule="evenodd" d="M10.9999 31C11.1516 30.6095 11.7733 31.3905 12.9999 32C16.5003 33.7392 16.7291 33 16.9999 33C17.1589 33 16.9999 33.8516 16.9999 34C16.9999 34.1483 17.819 34 17.9999 34C18.1807 34 18.3196 34.6524 18.9999 35C19.6799 35.3475 20.5523 35.7923 20.9999 36L21.9999 36L21.9999 40C21.9999 42.4665 22.1449 44 21.9999 44C21.6419 44 20.0968 43.2345 19.9999 43C19.9538 42.8889 19.3327 43 18.9999 43C18.667 43 17.9999 43.1483 17.9999 43C17.9999 42.8516 18.2085 42 17.9999 42C17.7915 42 17.239 42.1388 16.9999 42C15.9907 41.4145 15.3142 41 14.9999 41C14.8145 41 13.9999 41.1483 13.9999 41C13.9999 40.8516 14.2408 40.0048 13.9999 40C13.7589 39.9954 13.2671 40.2178 12.9999 40C12.7324 39.7823 12.3007 40 11.9999 40C11.5876 40 11.1178 39.635 10.9999 39C10.7932 37.8874 10.7825 31.5606 10.9999 31ZM10.9999 41C11.0843 40.7761 11.1981 41.541 11.9999 42C12.6315 42.3616 13.8138 42 13.9999 42C14.1859 42 13.9999 42.8516 13.9999 43C13.9999 43.1483 14.819 43 14.9999 43C15.1807 43 15.4574 42.723 15.9999 43C17.0207 43.5215 17.1413 44.6312 19.9999 46L21.9999 46L21.9999 50C21.9999 52.6911 22.1764 54 21.9999 54C21.8533 54 20.7527 54.3707 19.9999 54C19.247 53.6292 19.0607 53 18.9999 53C18.9387 53 17.7958 52.3885 16.9999 52C16.2041 51.6114 15.482 51.2243 14.9999 51C14.5177 50.7759 13.5424 50.2772 12.9999 50C12.4574 49.723 12.1644 50 11.9999 50C11.8351 50 11.083 49.3338 10.9999 49C10.8228 48.2883 10.8223 41.4694 10.9999 41ZM10.9999 52C11.1917 51.7934 11.9999 51.7414 11.9999 52C11.9999 52.1307 12.8614 52 12.9999 52C13.1384 52 13.286 52.6292 13.9999 53C14.7137 53.3707 15.819 54 15.9999 54C15.9999 53.8516 16.1807 54 15.9999 54C15.9999 54.1483 16.7324 54 16.9999 54C16.9215 53.863 17.2673 54 16.9999 54C17.0785 54.1369 17.5883 54.9026 17.9999 55C18.4116 55.0973 18.9999 54.8635 18.9999 55C18.9999 55.1367 19.6555 56 19.9999 56C19.9999 55.8516 20.3442 56 19.9999 56C19.9999 56.1483 20.7456 56 20.9999 56C21.2541 56 21.7719 56.7287 21.9999 57C22.346 57.4114 21.9999 57.697 21.9999 61C21.9999 63.1758 22.0707 65 21.9999 65C21.9292 65 21.239 65.1318 20.9999 65C20.7607 64.8681 20.5509 64.2607 19.9999 64C19.4488 63.7392 18.239 63.1264 17.9999 63C17.7607 62.8735 18.2082 63 17.9999 63C17.7912 63 16.9999 63.1483 16.9999 63C16.9999 62.8516 17.2085 63 16.9999 63C16.7915 63 16.239 62.1412 15.9999 62C15.7607 61.8589 15.5509 62.2451 14.9999 62C13.2203 61.2085 11.1762 60.268 10.9999 60C10.8093 59.7101 10.8128 52.2014 10.9999 52Z" fill="#11E5B3"/>
</svg>
